<mxfile host="app.diagrams.net" agent="Mozilla/5.0 (Windows NT 10.0; Win64; x64) AppleWebKit/537.36 (KHTML, like Gecko) Chrome/127.0.0.0 Safari/537.36" version="24.7.8">
  <diagram id="prtHgNgQTEPvFCAcTncT" name="Page-1">
    <mxGraphModel dx="1000" dy="538" grid="1" gridSize="10" guides="1" tooltips="1" connect="1" arrows="1" fold="1" page="1" pageScale="1" pageWidth="827" pageHeight="1169" math="0" shadow="0">
      <root>
        <mxCell id="0" />
        <mxCell id="1" parent="0" />
        <mxCell id="dNxyNK7c78bLwvsdeMH5-19" value="login admin" style="swimlane;html=1;childLayout=stackLayout;resizeParent=1;resizeParentMax=0;horizontal=0;startSize=20;horizontalStack=0;fontSize=10;" parent="1" vertex="1">
          <mxGeometry x="120" y="120" width="960" height="280" as="geometry" />
        </mxCell>
        <mxCell id="dNxyNK7c78bLwvsdeMH5-27" value="" style="edgeStyle=orthogonalEdgeStyle;rounded=0;orthogonalLoop=1;jettySize=auto;html=1;endArrow=classic;endFill=1;" parent="dNxyNK7c78bLwvsdeMH5-19" source="dNxyNK7c78bLwvsdeMH5-24" target="dNxyNK7c78bLwvsdeMH5-26" edge="1">
          <mxGeometry relative="1" as="geometry" />
        </mxCell>
        <mxCell id="dNxyNK7c78bLwvsdeMH5-20" value="admin kantor" style="swimlane;html=1;startSize=20;horizontal=0;" parent="dNxyNK7c78bLwvsdeMH5-19" vertex="1">
          <mxGeometry x="20" width="940" height="120" as="geometry" />
        </mxCell>
        <mxCell id="dNxyNK7c78bLwvsdeMH5-25" value="" style="edgeStyle=orthogonalEdgeStyle;rounded=0;orthogonalLoop=1;jettySize=auto;html=1;" parent="dNxyNK7c78bLwvsdeMH5-20" source="dNxyNK7c78bLwvsdeMH5-23" target="dNxyNK7c78bLwvsdeMH5-24" edge="1">
          <mxGeometry relative="1" as="geometry" />
        </mxCell>
        <mxCell id="dNxyNK7c78bLwvsdeMH5-23" value="" style="ellipse;whiteSpace=wrap;html=1;" parent="dNxyNK7c78bLwvsdeMH5-20" vertex="1">
          <mxGeometry x="40" y="40" width="40" height="40" as="geometry" />
        </mxCell>
        <mxCell id="dNxyNK7c78bLwvsdeMH5-24" value="&lt;font style=&quot;font-size: 10px;&quot;&gt;memilih menu login di halaman dashboard&lt;/font&gt;" style="rounded=1;whiteSpace=wrap;html=1;fontFamily=Helvetica;fontSize=12;fontColor=#000000;align=center;" parent="dNxyNK7c78bLwvsdeMH5-20" vertex="1">
          <mxGeometry x="120" y="30" width="80" height="60" as="geometry" />
        </mxCell>
        <mxCell id="5Fuo24VsPP9PU_H3hO7u-5" value="" style="edgeStyle=orthogonalEdgeStyle;rounded=0;orthogonalLoop=1;jettySize=auto;html=1;" edge="1" parent="dNxyNK7c78bLwvsdeMH5-20" source="5Fuo24VsPP9PU_H3hO7u-1" target="5Fuo24VsPP9PU_H3hO7u-4">
          <mxGeometry relative="1" as="geometry" />
        </mxCell>
        <mxCell id="5Fuo24VsPP9PU_H3hO7u-1" value="&lt;font style=&quot;font-size: 10px;&quot;&gt;mengisi username dan password&lt;/font&gt;" style="rounded=1;whiteSpace=wrap;html=1;fontColor=#000000;" vertex="1" parent="dNxyNK7c78bLwvsdeMH5-20">
          <mxGeometry x="230" y="30" width="80" height="60" as="geometry" />
        </mxCell>
        <mxCell id="5Fuo24VsPP9PU_H3hO7u-4" value="&lt;font style=&quot;font-size: 10px;&quot;&gt;klik tombol login&lt;/font&gt;" style="whiteSpace=wrap;html=1;fontColor=#000000;rounded=1;" vertex="1" parent="dNxyNK7c78bLwvsdeMH5-20">
          <mxGeometry x="350" y="37" width="60" height="45" as="geometry" />
        </mxCell>
        <mxCell id="dNxyNK7c78bLwvsdeMH5-21" value="siperkakaspinter" style="swimlane;html=1;startSize=20;horizontal=0;" parent="dNxyNK7c78bLwvsdeMH5-19" vertex="1">
          <mxGeometry x="20" y="120" width="940" height="160" as="geometry" />
        </mxCell>
        <mxCell id="dNxyNK7c78bLwvsdeMH5-26" value="&lt;font style=&quot;font-size: 10px;&quot;&gt;menampilkan form login&lt;/font&gt;" style="rounded=1;whiteSpace=wrap;html=1;fontFamily=Helvetica;fontSize=12;fontColor=#000000;align=center;" parent="dNxyNK7c78bLwvsdeMH5-21" vertex="1">
          <mxGeometry x="120" y="40" width="80" height="60" as="geometry" />
        </mxCell>
        <mxCell id="5Fuo24VsPP9PU_H3hO7u-14" value="" style="edgeStyle=orthogonalEdgeStyle;rounded=0;orthogonalLoop=1;jettySize=auto;html=1;entryX=0.997;entryY=0.667;entryDx=0;entryDy=0;entryPerimeter=0;" edge="1" parent="dNxyNK7c78bLwvsdeMH5-21" source="5Fuo24VsPP9PU_H3hO7u-8" target="dNxyNK7c78bLwvsdeMH5-26">
          <mxGeometry relative="1" as="geometry">
            <mxPoint x="280" y="80" as="targetPoint" />
          </mxGeometry>
        </mxCell>
        <mxCell id="5Fuo24VsPP9PU_H3hO7u-21" value="" style="edgeStyle=orthogonalEdgeStyle;rounded=0;orthogonalLoop=1;jettySize=auto;html=1;" edge="1" parent="dNxyNK7c78bLwvsdeMH5-21" source="5Fuo24VsPP9PU_H3hO7u-8" target="5Fuo24VsPP9PU_H3hO7u-20">
          <mxGeometry relative="1" as="geometry" />
        </mxCell>
        <mxCell id="5Fuo24VsPP9PU_H3hO7u-8" value="" style="rhombus;whiteSpace=wrap;html=1;fontColor=#000000;rounded=0;" vertex="1" parent="dNxyNK7c78bLwvsdeMH5-21">
          <mxGeometry x="340" y="40" width="80" height="80" as="geometry" />
        </mxCell>
        <mxCell id="5Fuo24VsPP9PU_H3hO7u-10" value="&lt;font style=&quot;font-size: 7px;&quot;&gt;data login valid?&lt;/font&gt;" style="text;html=1;align=center;verticalAlign=middle;whiteSpace=wrap;rounded=0;" vertex="1" parent="dNxyNK7c78bLwvsdeMH5-21">
          <mxGeometry x="320" y="10" width="60" height="20" as="geometry" />
        </mxCell>
        <mxCell id="5Fuo24VsPP9PU_H3hO7u-16" value="&lt;font style=&quot;font-size: 8px;&quot;&gt;tidak&lt;/font&gt;" style="text;html=1;align=center;verticalAlign=middle;whiteSpace=wrap;rounded=0;" vertex="1" parent="dNxyNK7c78bLwvsdeMH5-21">
          <mxGeometry x="307" y="63" width="40" height="15" as="geometry" />
        </mxCell>
        <mxCell id="5Fuo24VsPP9PU_H3hO7u-17" value="&lt;font style=&quot;font-size: 8px;&quot;&gt;ya&lt;/font&gt;" style="text;html=1;align=center;verticalAlign=middle;whiteSpace=wrap;rounded=0;" vertex="1" parent="dNxyNK7c78bLwvsdeMH5-21">
          <mxGeometry x="420" y="62.5" width="40" height="15" as="geometry" />
        </mxCell>
        <mxCell id="5Fuo24VsPP9PU_H3hO7u-18" value="menampilkan halaman admin" style="whiteSpace=wrap;html=1;fontColor=#000000;rounded=1;fontSize=10;" vertex="1" parent="dNxyNK7c78bLwvsdeMH5-21">
          <mxGeometry x="770" y="62.5" width="80" height="40" as="geometry" />
        </mxCell>
        <mxCell id="5Fuo24VsPP9PU_H3hO7u-20" value="" style="rhombus;whiteSpace=wrap;html=1;fontColor=#000000;rounded=0;" vertex="1" parent="dNxyNK7c78bLwvsdeMH5-21">
          <mxGeometry x="480" y="40" width="80" height="80" as="geometry" />
        </mxCell>
        <mxCell id="5Fuo24VsPP9PU_H3hO7u-23" value="" style="endArrow=classic;html=1;rounded=1;exitX=0.5;exitY=1;exitDx=0;exitDy=0;entryX=-0.022;entryY=0.62;entryDx=0;entryDy=0;entryPerimeter=0;curved=0;" edge="1" parent="dNxyNK7c78bLwvsdeMH5-21" source="5Fuo24VsPP9PU_H3hO7u-20" target="5Fuo24VsPP9PU_H3hO7u-29">
          <mxGeometry width="50" height="50" relative="1" as="geometry">
            <mxPoint x="520" y="150" as="sourcePoint" />
            <mxPoint x="630" y="140" as="targetPoint" />
            <Array as="points">
              <mxPoint x="520" y="140" />
            </Array>
          </mxGeometry>
        </mxCell>
        <mxCell id="5Fuo24VsPP9PU_H3hO7u-24" value="&lt;font style=&quot;font-size: 8px;&quot;&gt;admin kantor atau kebun?&lt;/font&gt;" style="text;html=1;align=center;verticalAlign=middle;whiteSpace=wrap;rounded=0;fontSize=8;" vertex="1" parent="dNxyNK7c78bLwvsdeMH5-21">
          <mxGeometry x="463" y="110" width="110" height="30" as="geometry" />
        </mxCell>
        <mxCell id="dNxyNK7c78bLwvsdeMH5-32" value="" style="ellipse;whiteSpace=wrap;html=1;" parent="dNxyNK7c78bLwvsdeMH5-21" vertex="1">
          <mxGeometry x="880" y="60" width="40" height="40" as="geometry" />
        </mxCell>
        <mxCell id="5Fuo24VsPP9PU_H3hO7u-26" value="" style="endArrow=classic;html=1;rounded=0;entryX=0;entryY=0.5;entryDx=0;entryDy=0;exitX=0.999;exitY=0.445;exitDx=0;exitDy=0;exitPerimeter=0;" edge="1" parent="dNxyNK7c78bLwvsdeMH5-21" source="5Fuo24VsPP9PU_H3hO7u-18" target="dNxyNK7c78bLwvsdeMH5-32">
          <mxGeometry width="50" height="50" relative="1" as="geometry">
            <mxPoint x="580" y="60" as="sourcePoint" />
            <mxPoint x="630" y="10" as="targetPoint" />
          </mxGeometry>
        </mxCell>
        <mxCell id="5Fuo24VsPP9PU_H3hO7u-27" value="&lt;font style=&quot;font-size: 8px;&quot;&gt;admin kantor&lt;/font&gt;" style="text;html=1;align=center;verticalAlign=middle;whiteSpace=wrap;rounded=0;fontSize=8;" vertex="1" parent="dNxyNK7c78bLwvsdeMH5-21">
          <mxGeometry x="565" y="7" width="60" height="15" as="geometry" />
        </mxCell>
        <mxCell id="5Fuo24VsPP9PU_H3hO7u-28" value="login sebagai admin kantor" style="whiteSpace=wrap;html=1;fontColor=#000000;rounded=1;fontSize=10;" vertex="1" parent="dNxyNK7c78bLwvsdeMH5-21">
          <mxGeometry x="633" y="7" width="80" height="40" as="geometry" />
        </mxCell>
        <mxCell id="5Fuo24VsPP9PU_H3hO7u-29" value="login sebagai admin kantor" style="whiteSpace=wrap;html=1;fontColor=#000000;rounded=1;fontSize=10;" vertex="1" parent="dNxyNK7c78bLwvsdeMH5-21">
          <mxGeometry x="633" y="116" width="80" height="40" as="geometry" />
        </mxCell>
        <mxCell id="5Fuo24VsPP9PU_H3hO7u-30" value="" style="endArrow=classic;html=1;rounded=1;exitX=0.5;exitY=0;exitDx=0;exitDy=0;curved=0;entryX=0.001;entryY=0.352;entryDx=0;entryDy=0;entryPerimeter=0;" edge="1" parent="dNxyNK7c78bLwvsdeMH5-21" source="5Fuo24VsPP9PU_H3hO7u-20" target="5Fuo24VsPP9PU_H3hO7u-28">
          <mxGeometry width="50" height="50" relative="1" as="geometry">
            <mxPoint x="522" y="-5" as="sourcePoint" />
            <mxPoint x="630" y="23" as="targetPoint" />
            <Array as="points">
              <mxPoint x="520" y="20" />
            </Array>
          </mxGeometry>
        </mxCell>
        <mxCell id="5Fuo24VsPP9PU_H3hO7u-31" value="&lt;font style=&quot;font-size: 8px;&quot;&gt;admin kebun&lt;/font&gt;" style="text;html=1;align=center;verticalAlign=middle;whiteSpace=wrap;rounded=0;fontSize=8;" vertex="1" parent="dNxyNK7c78bLwvsdeMH5-21">
          <mxGeometry x="567" y="124.5" width="60" height="15" as="geometry" />
        </mxCell>
        <mxCell id="5Fuo24VsPP9PU_H3hO7u-32" value="" style="endArrow=classic;html=1;rounded=1;entryX=0.5;entryY=0;entryDx=0;entryDy=0;exitX=1;exitY=0.5;exitDx=0;exitDy=0;curved=0;" edge="1" parent="dNxyNK7c78bLwvsdeMH5-21" source="5Fuo24VsPP9PU_H3hO7u-28" target="5Fuo24VsPP9PU_H3hO7u-18">
          <mxGeometry width="50" height="50" relative="1" as="geometry">
            <mxPoint x="600" y="170" as="sourcePoint" />
            <mxPoint x="650" y="120" as="targetPoint" />
            <Array as="points">
              <mxPoint x="810" y="27" />
            </Array>
          </mxGeometry>
        </mxCell>
        <mxCell id="5Fuo24VsPP9PU_H3hO7u-33" value="" style="endArrow=classic;html=1;rounded=1;entryX=0.5;entryY=1;entryDx=0;entryDy=0;exitX=1.03;exitY=0.586;exitDx=0;exitDy=0;exitPerimeter=0;curved=0;" edge="1" parent="dNxyNK7c78bLwvsdeMH5-21" source="5Fuo24VsPP9PU_H3hO7u-29" target="5Fuo24VsPP9PU_H3hO7u-18">
          <mxGeometry width="50" height="50" relative="1" as="geometry">
            <mxPoint x="600" y="170" as="sourcePoint" />
            <mxPoint x="650" y="120" as="targetPoint" />
            <Array as="points">
              <mxPoint x="810" y="140" />
            </Array>
          </mxGeometry>
        </mxCell>
        <mxCell id="5Fuo24VsPP9PU_H3hO7u-2" value="" style="edgeStyle=orthogonalEdgeStyle;rounded=1;orthogonalLoop=1;jettySize=auto;html=1;curved=0;" edge="1" parent="dNxyNK7c78bLwvsdeMH5-19" source="dNxyNK7c78bLwvsdeMH5-26" target="5Fuo24VsPP9PU_H3hO7u-1">
          <mxGeometry relative="1" as="geometry" />
        </mxCell>
        <mxCell id="5Fuo24VsPP9PU_H3hO7u-7" value="" style="edgeStyle=orthogonalEdgeStyle;rounded=0;orthogonalLoop=1;jettySize=auto;html=1;" edge="1" parent="dNxyNK7c78bLwvsdeMH5-19" source="5Fuo24VsPP9PU_H3hO7u-4" target="5Fuo24VsPP9PU_H3hO7u-8">
          <mxGeometry relative="1" as="geometry">
            <mxPoint x="400" y="160" as="targetPoint" />
          </mxGeometry>
        </mxCell>
      </root>
    </mxGraphModel>
  </diagram>
</mxfile>
